<?xml version="1.0" standalone="no"?>
<!DOCTYPE svg PUBLIC "-//W3C//DTD SVG 20010904//EN"
 "http://www.w3.org/TR/2001/REC-SVG-20010904/DTD/svg10.dtd">
<svg version="1.0" xmlns="http://www.w3.org/2000/svg"
 width="1482.000000pt" height="784.000000pt" viewBox="0 0 1482.000000 784.000000"
 preserveAspectRatio="xMidYMid meet">

<g transform="translate(0.000000,784.000000) scale(0.100000,-0.100000)"
fill="#000000" stroke="none">
<path d="M3050 7156 c-206 -60 -322 -256 -266 -450 57 -195 235 -293 483 -265
214 24 357 188 340 392 -4 45 -15 89 -32 122 -32 67 -119 149 -192 183 -50 22
-73 26 -173 29 -73 1 -131 -2 -160 -11z"/>
<path d="M4745 7069 c-44 -5 -120 -21 -170 -35 -343 -96 -523 -326 -551 -701
l-7 -93 -108 0 -109 0 0 -295 0 -295 110 0 110 0 0 -730 0 -730 360 0 360 0 2
728 3 727 163 3 162 2 0 295 0 295 -159 0 c-88 0 -162 4 -165 8 -9 14 15 101
38 134 38 56 97 82 193 82 l83 1 -2 305 -3 305 -115 1 c-63 1 -151 -2 -195 -7z"/>
<path d="M9775 6909 c-120 -16 -226 -48 -345 -106 -100 -49 -125 -66 -196
-137 -88 -89 -122 -143 -162 -256 -23 -67 -26 -90 -26 -210 0 -121 3 -143 27
-213 46 -132 112 -222 218 -296 l69 -48 -63 -41 c-80 -52 -176 -151 -222 -227
-60 -100 -87 -201 -92 -346 -13 -315 106 -551 362 -718 383 -250 1030 -217
1376 70 113 95 204 239 245 389 26 93 26 351 1 435 -51 166 -153 305 -293 395
l-65 43 50 33 c116 78 206 201 247 339 28 93 26 288 -4 380 -37 111 -88 193
-173 277 -65 65 -94 85 -191 132 -121 59 -222 89 -358 105 -99 13 -305 12
-405 0z m289 -560 c53 -15 121 -80 143 -137 11 -30 18 -74 18 -123 0 -65 -5
-84 -30 -134 -19 -37 -45 -68 -73 -89 -38 -27 -54 -31 -121 -34 -116 -6 -187
33 -232 125 -29 61 -33 186 -6 254 44 114 173 174 301 138z m56 -1041 c54 -23
114 -78 143 -133 18 -33 22 -56 22 -140 0 -93 -2 -104 -31 -155 -58 -104 -165
-157 -293 -148 -124 9 -216 70 -263 173 -17 39 -22 68 -22 131 0 128 49 210
157 266 81 41 201 44 287 6z"/>
<path d="M12168 6905 c-440 -69 -711 -380 -810 -930 -20 -116 -23 -160 -23
-415 0 -249 3 -300 22 -405 118 -649 436 -945 1018 -948 83 0 186 6 230 12
452 72 716 372 817 931 26 146 36 515 19 682 -61 579 -317 948 -733 1052 -150
37 -376 46 -540 21z m347 -682 c66 -22 136 -93 163 -164 43 -115 53 -195 59
-439 8 -333 -24 -531 -100 -632 -70 -94 -225 -132 -364 -90 -157 48 -209 162
-234 509 -20 264 12 555 72 676 37 73 97 126 169 148 47 14 184 10 235 -8z"/>
<path d="M7440 6530 l0 -340 190 0 190 0 0 -1000 0 -1000 375 0 375 0 0 1340
0 1340 -565 0 -565 0 0 -340z"/>
<path d="M1030 5480 l0 -1290 760 0 760 0 0 275 0 275 -400 0 -400 0 0 1015 0
1015 -360 0 -360 0 0 -1290z"/>
<path d="M6075 6259 c-225 -31 -412 -118 -562 -262 -135 -129 -219 -274 -270
-462 -25 -94 -27 -114 -27 -315 -1 -195 1 -223 23 -304 105 -398 378 -655 777
-732 127 -24 349 -23 474 4 296 62 546 245 670 491 34 69 80 190 80 213 0 4
-172 8 -382 7 l-383 0 -30 -47 c-18 -27 -50 -59 -79 -77 -46 -28 -56 -30 -145
-30 -85 0 -102 3 -148 27 -82 44 -136 131 -149 241 l-7 57 679 2 679 3 5 85
c7 124 -5 283 -30 380 -26 103 -94 250 -154 334 -132 184 -342 317 -581 367
-106 23 -338 32 -440 18z m315 -587 c51 -25 114 -82 136 -124 8 -16 18 -51 21
-79 l6 -49 -318 0 -317 0 7 28 c26 106 110 204 201 235 70 24 204 19 264 -11z"/>
<path d="M2830 5215 l0 -1025 360 0 360 0 0 1025 0 1025 -360 0 -360 0 0
-1025z"/>
<path d="M7381 2906 c-72 -40 -64 -150 14 -176 70 -23 136 17 138 83 2 81 -81
132 -152 93z"/>
<path d="M7860 2901 c-106 -32 -160 -106 -160 -218 l0 -43 -40 0 -40 0 0 -65
0 -65 40 0 40 0 0 -265 0 -265 85 0 85 0 0 265 0 265 60 0 60 0 0 65 0 65 -60
0 -60 0 0 38 c0 52 23 81 71 88 l39 7 0 68 0 69 -47 -1 c-27 0 -59 -4 -73 -8z"/>
<path d="M7017 2863 c-4 -3 -7 -204 -7 -445 l0 -438 85 0 85 0 0 445 0 445
-78 0 c-43 0 -82 -3 -85 -7z"/>
<path d="M13250 2715 l0 -156 -37 30 c-50 40 -113 61 -183 61 -187 0 -310
-150 -298 -364 7 -131 62 -227 160 -282 48 -26 62 -29 143 -29 98 0 126 10
183 63 l32 30 0 -44 0 -44 85 0 85 0 0 445 0 445 -85 0 -85 0 0 -155z m-77
-241 c97 -64 103 -256 11 -321 -128 -90 -284 0 -284 164 0 152 150 238 273
157z"/>
<path d="M867 2813 c-4 -3 -7 -35 -7 -70 l0 -63 115 0 115 0 0 -350 0 -350 80
0 80 0 0 350 0 350 115 0 116 0 -3 68 -3 67 -301 3 c-165 1 -303 -1 -307 -5z"/>
<path d="M2670 2634 c-19 -8 -52 -31 -72 -52 l-38 -36 0 47 0 47 -85 0 -85 0
0 -330 0 -330 84 0 85 0 3 204 c3 189 5 207 24 233 27 37 63 53 129 60 l55 6
0 83 0 84 -32 0 c-18 -1 -49 -8 -68 -16z"/>
<path d="M3140 2629 c-25 -11 -55 -30 -67 -41 l-23 -21 0 36 0 37 -85 0 -85 0
0 -330 0 -330 84 0 85 0 3 224 c3 224 3 225 28 251 34 37 72 55 115 55 51 0
101 -26 125 -65 18 -30 20 -49 20 -249 l0 -216 85 0 85 0 0 230 c0 258 -10
307 -72 367 -75 72 -204 95 -298 52z"/>
<path d="M4846 2625 c-145 -59 -226 -214 -197 -376 29 -169 140 -267 312 -277
95 -6 166 15 235 67 164 124 173 393 18 529 -95 84 -246 107 -368 57z m197
-129 c39 -16 82 -61 96 -99 15 -40 14 -141 -3 -180 -29 -71 -121 -117 -195
-97 -72 19 -112 66 -126 147 -16 99 19 182 95 221 51 25 87 28 133 8z"/>
<path d="M6520 2634 c-19 -8 -52 -31 -72 -52 l-38 -36 0 47 0 47 -85 0 -85 0
0 -330 0 -330 84 0 85 0 3 204 c3 189 5 207 24 233 27 36 61 52 124 60 l50 6
0 83 0 84 -27 0 c-16 -1 -44 -8 -63 -16z"/>
<path d="M8280 2641 c-92 -30 -156 -86 -194 -171 -68 -152 -27 -346 92 -437
107 -82 291 -85 404 -7 44 31 93 96 104 137 l6 27 -85 0 c-76 0 -88 -2 -101
-21 -27 -39 -68 -59 -119 -59 -85 0 -142 43 -161 123 l-6 27 245 0 245 0 0 70
c0 127 -57 228 -161 285 -48 26 -65 30 -149 32 -52 1 -106 -1 -120 -6z m150
-131 c45 -12 98 -66 106 -108 l7 -32 -157 0 c-155 0 -156 0 -156 23 0 17 43
96 53 97 1 0 20 7 42 15 48 17 60 18 105 5z"/>
<path d="M9276 2634 c-129 -47 -204 -182 -193 -350 8 -134 59 -224 159 -279
47 -27 63 -30 138 -30 93 0 136 15 190 65 l30 28 0 -44 0 -44 85 0 85 0 0 330
0 330 -85 0 -85 0 0 -41 0 -41 -32 28 c-55 46 -106 64 -183 63 -38 0 -88 -7
-109 -15z m247 -160 c97 -64 103 -256 11 -321 -128 -90 -284 0 -284 164 0 152
150 238 273 157z"/>
<path d="M10210 2634 c-19 -8 -52 -31 -72 -52 l-38 -36 0 47 0 47 -80 0 -80 0
0 -330 0 -330 79 0 79 0 4 203 c3 173 6 207 21 230 23 36 68 58 133 64 l54 6
0 83 0 84 -32 0 c-18 -1 -49 -8 -68 -16z"/>
<path d="M10600 2633 c-68 -23 -127 -69 -165 -126 -44 -67 -59 -129 -53 -225
8 -132 75 -234 187 -286 37 -17 65 -21 146 -21 87 0 107 3 155 26 70 33 126
89 159 159 22 47 26 68 26 151 0 90 -2 100 -35 165 -41 79 -106 135 -184 159
-64 19 -179 18 -236 -2z m186 -142 c75 -34 111 -109 101 -209 -11 -101 -76
-164 -171 -166 -96 -1 -154 57 -163 164 -8 81 3 125 40 167 56 63 119 78 193
44z"/>
<path d="M12240 2629 c-25 -11 -55 -30 -67 -41 l-23 -21 0 36 0 37 -85 0 -85
0 0 -330 0 -330 84 0 85 0 3 223 c3 204 5 224 23 249 61 81 200 74 247 -13 16
-30 18 -59 18 -246 l0 -213 85 0 85 0 0 223 c0 250 -8 296 -62 361 -67 81
-207 111 -308 65z"/>
<path d="M1600 2403 c0 -218 2 -242 21 -283 45 -100 115 -144 234 -144 86 -1
127 13 178 59 l27 26 0 -41 0 -40 85 0 85 0 0 330 0 330 -85 0 -85 0 0 -202
c0 -178 -3 -208 -19 -245 -34 -75 -113 -101 -194 -65 -76 34 -81 52 -85 300
l-3 212 -80 0 -79 0 0 -237z"/>
<path d="M3890 2632 c0 -5 57 -146 126 -313 69 -167 126 -311 126 -319 1 -8
-29 -84 -65 -168 -37 -84 -67 -155 -67 -157 0 -3 39 -5 88 -5 l87 0 200 476
c110 262 202 480 203 485 2 5 -36 9 -86 9 l-89 0 -84 -225 c-46 -124 -86 -225
-89 -225 -3 0 -42 100 -86 223 l-82 222 -91 3 c-50 1 -91 -1 -91 -6z"/>
<path d="M5442 2408 c3 -217 5 -236 26 -283 42 -92 107 -140 205 -151 76 -9
146 10 196 53 l41 35 0 -41 0 -41 85 0 85 0 0 330 0 330 -84 0 -85 0 -3 -212
c-3 -233 -8 -256 -65 -294 -38 -25 -129 -25 -167 -1 -56 37 -66 80 -66 305 l0
202 -86 0 -86 0 4 -232z"/>
<path d="M7350 2310 l0 -330 85 0 85 0 0 330 0 330 -85 0 -85 0 0 -330z"/>
<path d="M11180 2418 c0 -123 5 -240 10 -260 47 -169 252 -243 400 -143 l50
34 0 -35 0 -34 85 0 85 0 0 330 0 330 -85 0 -85 0 0 -212 c0 -193 -2 -216 -20
-245 -56 -92 -187 -94 -247 -4 -22 33 -23 42 -23 247 l0 214 -85 0 -85 0 0
-222z"/>
</g>
</svg>
