<svg width="60" height="60" viewBox="0 0 60 60" fill="none" xmlns="http://www.w3.org/2000/svg">
<g clip-path="url(#clip0_133_800)">
<path d="M30 7.5C20.325 7.5 12.5 15.325 12.5 25C12.5 29.35 13.75 33.425 16.025 37.1C18.4 40.95 21.525 44.25 23.925 48.1C25.1 49.975 25.95 51.725 26.85 53.75C27.5 55.125 28.025 57.5 30 57.5C31.975 57.5 32.5 55.125 33.125 53.75C34.05 51.725 34.875 49.975 36.05 48.1C38.45 44.275 41.575 40.975 43.95 37.1C46.25 33.425 47.5 29.35 47.5 25C47.5 15.325 39.675 7.5 30 7.5ZM30 31.875C26.55 31.875 23.75 29.075 23.75 25.625C23.75 22.175 26.55 19.375 30 19.375C33.45 19.375 36.25 22.175 36.25 25.625C36.25 29.075 33.45 31.875 30 31.875Z" fill="black"/>
</g>
<defs>
<clipPath id="clip0_133_800">
<rect width="60" height="60" fill="white"/>
</clipPath>
</defs>
</svg>
