<svg width="58" height="53" viewBox="0 0 58 53" fill="none" xmlns="http://www.w3.org/2000/svg">
<path d="M53.7281 46.1149C53.7281 46.1149 57.2608 46.1149 57.2608 42.8209C57.2608 39.527 53.7281 29.6453 39.5977 29.6453C25.4673 29.6453 21.9347 39.527 21.9347 42.8209C21.9347 46.1149 25.4673 46.1149 25.4673 46.1149H53.7281ZM25.545 42.8209C25.5189 42.8176 25.493 42.8132 25.4673 42.8078C25.4708 41.9382 26.0572 39.415 28.1521 37.1422C30.1021 35.0111 33.5287 32.9392 39.5977 32.9392C45.6632 32.9392 49.0898 35.0143 51.0434 37.1422C53.1382 39.415 53.7211 41.9415 53.7281 42.8078L53.6999 42.8143C53.6835 42.8169 53.667 42.8191 53.6504 42.8209H25.545ZM39.5977 23.0574C41.4715 23.0574 43.2686 22.3634 44.5936 21.1279C45.9186 19.8924 46.6629 18.2168 46.6629 16.4696C46.6629 14.7224 45.9186 13.0467 44.5936 11.8113C43.2686 10.5758 41.4715 9.88175 39.5977 9.88175C37.7239 9.88175 35.9268 10.5758 34.6018 11.8113C33.2769 13.0467 32.5325 14.7224 32.5325 16.4696C32.5325 18.2168 33.2769 19.8924 34.6018 21.1279C35.9268 22.3634 37.7239 23.0574 39.5977 23.0574ZM50.1955 16.4696C50.1955 17.7673 49.9214 19.0523 49.3888 20.2512C48.8562 21.4501 48.0756 22.5394 47.0915 23.457C46.1074 24.3746 44.9391 25.1025 43.6533 25.5991C42.3675 26.0957 40.9894 26.3513 39.5977 26.3513C38.206 26.3513 36.8279 26.0957 35.5421 25.5991C34.2563 25.1025 33.088 24.3746 32.1039 23.457C31.1198 22.5394 30.3392 21.4501 29.8066 20.2512C29.274 19.0523 28.9999 17.7673 28.9999 16.4696C28.9999 13.8488 30.1164 11.3353 32.1039 9.48213C34.0914 7.62894 36.787 6.58783 39.5977 6.58783C42.4084 6.58783 45.104 7.62894 47.0915 9.48213C49.079 11.3353 50.1955 13.8488 50.1955 16.4696ZM25.2412 30.5676C23.8281 30.1527 22.3714 29.8799 20.8961 29.754C20.0671 29.6805 19.2348 29.6442 18.4021 29.6453C4.27162 29.6453 0.739014 39.527 0.739014 42.8209C0.739014 45.018 1.91537 46.1149 4.27162 46.1149H19.1651C18.6414 45.0865 18.3802 43.9591 18.4021 42.8209C18.4021 39.4941 19.7339 36.0948 22.2526 33.2554C23.111 32.287 24.1108 31.3812 25.2412 30.5676ZM18.1194 32.9392C16.0287 35.8684 14.8993 39.3024 14.8694 42.8209H4.27162C4.27162 41.9645 4.85097 39.4282 6.95641 37.1422C8.88168 35.0473 12.2271 33.0051 18.1194 32.9425V32.9392ZM6.03793 18.1165C6.03793 15.4957 7.15448 12.9823 9.14196 11.1291C11.1294 9.2759 13.825 8.23479 16.6358 8.23479C19.4465 8.23479 22.1421 9.2759 24.1295 11.1291C26.117 12.9823 27.2336 15.4957 27.2336 18.1165C27.2336 20.7374 26.117 23.2508 24.1295 25.104C22.1421 26.9572 19.4465 27.9983 16.6358 27.9983C13.825 27.9983 11.1294 26.9572 9.14196 25.104C7.15448 23.2508 6.03793 20.7374 6.03793 18.1165ZM16.6358 11.5287C14.7619 11.5287 12.9649 12.2228 11.6399 13.4582C10.3149 14.6937 9.57054 16.3693 9.57054 18.1165C9.57054 19.8637 10.3149 21.5394 11.6399 22.7749C12.9649 24.0103 14.7619 24.7044 16.6358 24.7044C18.5096 24.7044 20.3066 24.0103 21.6316 22.7749C22.9566 21.5394 23.701 19.8637 23.701 18.1165C23.701 16.3693 22.9566 14.6937 21.6316 13.4582C20.3066 12.2228 18.5096 11.5287 16.6358 11.5287Z" fill="black"/>
</svg>
