<svg width="50" height="50" viewBox="0 0 50 50" fill="none" xmlns="http://www.w3.org/2000/svg">
<path fill-rule="evenodd" clip-rule="evenodd" d="M33.9001 21.4C33.9001 23.6101 33.0221 25.7297 31.4593 27.2925C29.8965 28.8553 27.7769 29.7333 25.5667 29.7333C23.3566 29.7333 21.237 28.8553 19.6742 27.2925C18.1114 25.7297 17.2334 23.6101 17.2334 21.4C17.2334 19.1898 18.1114 17.0702 19.6742 15.5074C21.237 13.9446 23.3566 13.0667 25.5667 13.0667C27.7769 13.0667 29.8965 13.9446 31.4593 15.5074C33.0221 17.0702 33.9001 19.1898 33.9001 21.4ZM29.7334 21.4C29.7334 22.5051 29.2944 23.5649 28.513 24.3463C27.7316 25.1277 26.6718 25.5667 25.5667 25.5667C24.4617 25.5667 23.4019 25.1277 22.6205 24.3463C21.8391 23.5649 21.4001 22.5051 21.4001 21.4C21.4001 20.2949 21.8391 19.2351 22.6205 18.4537C23.4019 17.6723 24.4617 17.2333 25.5667 17.2333C26.6718 17.2333 27.7316 17.6723 28.513 18.4537C29.2944 19.2351 29.7334 20.2949 29.7334 21.4Z" fill="black"/>
<path fill-rule="evenodd" clip-rule="evenodd" d="M12.0708 34.4125C9.38509 31.8553 7.51794 28.5592 6.7055 24.9409C5.89306 21.3225 6.17183 17.5446 7.50655 14.0847C8.84128 10.6248 11.172 7.63839 14.204 5.50313C17.236 3.36788 20.8331 2.17967 24.5404 2.08877C28.2477 1.99786 31.8987 3.00834 35.0317 4.99243C38.1647 6.97651 40.639 9.84509 42.1417 13.2354C43.6444 16.6257 44.108 20.3855 43.4739 24.0393C42.8397 27.6931 41.1364 31.0768 38.5792 33.7625L25.65 47.3417L12.0708 34.4125ZM35.5625 30.8896L25.5063 41.4521L14.9438 31.3958C12.8549 29.4069 11.4028 26.8433 10.7709 24.0291C10.1391 21.2149 10.3559 18.2766 11.394 15.5856C12.4321 12.8946 14.2448 10.5719 16.6029 8.91117C18.9611 7.25041 21.7587 6.32621 24.6421 6.25541C27.5255 6.18462 30.3651 6.97041 32.8019 8.51344C35.2387 10.0565 37.1632 12.2874 38.3321 14.9242C39.501 17.561 39.8618 20.4851 39.3688 23.327C38.8758 26.1688 37.5512 28.8006 35.5625 30.8896Z" fill="black"/>
</svg>
